<svg xmlns="http://www.w3.org/2000/svg" viewBox="0 0 179.43 157"><g id="Layer_2" data-name="Layer 2"><g id="Layer_1-2" data-name="Layer 1"><path d="M108.26,0h63.26a7.91,7.91,0,0,1,7.91,7.91V60.62a7.91,7.91,0,0,1-7.91,7.91H108.26a7.91,7.91,0,0,1-7.91-7.91V7.91A7.91,7.91,0,0,1,108.26,0ZM72.56,0H8.06A8.06,8.06,0,0,0,0,8.06V61.81a8.06,8.06,0,0,0,8.06,8.06h64.5a8.06,8.06,0,0,0,8.06-8.06V8.06A8.06,8.06,0,0,0,72.56,0ZM0,93.66v55.08A8.26,8.26,0,0,0,8.26,157H74.35a8.26,8.26,0,0,0,8.26-8.26V93.66a8.26,8.26,0,0,0-8.26-8.26H8.26A8.26,8.26,0,0,0,0,93.66ZM108.26,157h63.26a8.09,8.09,0,0,0,7.91-8.26V93.66a8.09,8.09,0,0,0-7.91-8.26H108.26a8.09,8.09,0,0,0-7.91,8.26v55.08A8.09,8.09,0,0,0,108.26,157Z"/></g></g></svg>