<svg xmlns="http://www.w3.org/2000/svg" viewBox="0 0 224.79 238.55"><defs><style>.cls-1,.cls-2{fill:none;stroke:#000;stroke-linecap:round;stroke-linejoin:round;stroke-width:4px;}.cls-2{stroke-dasharray:8.75 11.67;}</style></defs><g id="Layer_2" data-name="Layer 2"><g id="Layer_1-2" data-name="Layer 1"><circle class="cls-1" cx="58.1" cy="95.26" r="56.1"/><circle class="cls-1" cx="58.1" cy="95.26" r="45.3"/><line class="cls-1" x1="28.91" y1="116.23" x2="35.7" y2="111.18"/><line class="cls-1" x1="80.27" y1="78.68" x2="87.07" y2="73.63"/><line class="cls-1" x1="36.17" y1="66.28" x2="40.94" y2="73.15"/><line class="cls-1" x1="73.43" y1="117.72" x2="78.48" y2="124.51"/><polyline class="cls-1" points="91.57 100.94 24.63 88.56 30.17 98.63"/><circle class="cls-1" cx="57.02" cy="94.8" r="2.7"/><polyline class="cls-1" points="99.38 57.04 107.26 2 222.79 18.59 191.36 236.55 75.84 219.96 86.88 145.01"/><circle class="cls-1" cx="162.49" cy="53.68" r="2.7"/><path class="cls-1" d="M141.84,50.07C140.32,61.56,157,91.78,157,91.78s24.66-24.24,26.25-35.44-6.35-22.22-17.84-23.74C154,30.42,143.36,38.58,141.84,50.07Z"/><path class="cls-1" d="M114.57,100.27s38.11,3,45.77,38.24,37.76,51,37.76,51"/><path class="cls-1" d="M82,179.25s1.38.59,4.07,1.48"/><path class="cls-2" d="M97.22,183.56c12.28,2.25,29.53,2.06,44-9.51,22.44-18.13,34-60.49,58.59-67.41"/><path class="cls-1" d="M205.78,105.8a17.76,17.76,0,0,1,4.36.17"/><line class="cls-1" x1="24.92" y1="88.49" x2="34.48" y2="82.14"/></g></g></svg>