<svg xmlns="http://www.w3.org/2000/svg" viewBox="0 0 202.28 213.69"><defs><style>.cls-1{fill:none;stroke:#000;stroke-miterlimit:10;stroke-width:4px;}</style></defs><g id="Layer_2" data-name="Layer 2"><g id="Layer_1-2" data-name="Layer 1"><path class="cls-1" d="M176.69,173.52A106.64,106.64,0,0,0,200,113.7a104,104,0,0,0-1.33-25.16,108,108,0,0,0-47.23-71c-15.53-10-33.9-16-52.38-15.53C80,2.46,61.41,9.64,46,20.89A108.39,108.39,0,0,0,7.38,73.61,105.89,105.89,0,0,0,77,208.2a85.37,85.37,0,0,0,55.42-2.47A105.89,105.89,0,0,0,172.38,35.29"/><path class="cls-1" d="M145.77,168.53a70.81,70.81,0,0,1-16.31,9.83,72,72,0,0,1-42.91,4.25,72.75,72.75,0,0,1-40.39-23.93,71.61,71.61,0,0,1-14.4-27.57,9.2,9.2,0,1,1,17.76-4.81,53.49,53.49,0,0,0,103.23,0,9.2,9.2,0,0,1,17.77,4.81A72.78,72.78,0,0,1,145.77,168.53Z"/><circle class="cls-1" cx="101.14" cy="115.09" r="20.75"/><path class="cls-1" d="M164.4,65.71l-11.2-1.63c-5.34-10.82-5.09-10.85-6.13-10.85s-.73-.11-6.14,10.85c-12,1.74-11.89,1.49-12.21,2.48s-.29.7,8.42,9.19c-2,12-2.25,11.77-1.41,12.38s.6.47,11.34-5.17c10.53,5.54,10.48,5.79,11.34,5.17S159,87.7,157,75.75l8.11-7.9A1.26,1.26,0,0,0,164.4,65.71Z"/><path class="cls-1" d="M72.58,65.71l-11.2-1.63C56,53.17,56.28,53.23,55.24,53.23a1.25,1.25,0,0,0-1.12.7l-5,10.15c-11.94,1.73-11.89,1.49-12.21,2.48s-.29.7,8.42,9.19c-2,11.91-2.26,11.77-1.42,12.38s.58.48,11.34-5.17c10.88,5.72,10.17,5.41,10.61,5.41a1.26,1.26,0,0,0,1.23-1.47L65.17,75.75l8.1-7.9A1.25,1.25,0,0,0,72.58,65.71Z"/></g></g></svg>