<svg xmlns="http://www.w3.org/2000/svg" viewBox="0 0 143.71 127.72"><g id="Layer_2" data-name="Layer 2"><g id="Layer_1-2" data-name="Layer 1"><path d="M100.45,20.73,123,43.24a2.43,2.43,0,0,1,0,3.44L68.46,101.17l-23.15,2.57A4.85,4.85,0,0,1,40,98.38l2.57-23.16L97,20.73a2.45,2.45,0,0,1,3.44,0ZM140.87,15,128.69,2.84a9.76,9.76,0,0,0-13.77,0l-8.83,8.84a2.43,2.43,0,0,0,0,3.44l22.5,22.5a2.44,2.44,0,0,0,3.45,0l8.83-8.83A9.76,9.76,0,0,0,140.87,15ZM95.81,86.35v25.4H16V31.91H73.3A3,3,0,0,0,75.42,31l10-10a3,3,0,0,0-2.12-5.12H12a12,12,0,0,0-12,12v87.82a12,12,0,0,0,12,12H99.8a12,12,0,0,0,12-12V76.37a3,3,0,0,0-5.12-2.12l-10,10A3.07,3.07,0,0,0,95.81,86.35Z"/></g></g></svg>