<svg xmlns="http://www.w3.org/2000/svg" viewBox="0 0 390.86 342"><g id="Layer_2" data-name="Layer 2"><g id="Layer_1-2" data-name="Layer 1"><path d="M378.64,268.71H122.14V256.5a12.24,12.24,0,0,0-12.21-12.21H85.5A12.24,12.24,0,0,0,73.29,256.5v12.21H12.21A12.26,12.26,0,0,0,0,280.93v24.43a12.25,12.25,0,0,0,12.21,12.21H73.29v12.22A12.25,12.25,0,0,0,85.5,342h24.43a12.25,12.25,0,0,0,12.21-12.21V317.57h256.5a12.26,12.26,0,0,0,12.22-12.21V280.93A12.26,12.26,0,0,0,378.64,268.71Zm0-122.14H317.57V134.36a12.26,12.26,0,0,0-12.21-12.22H280.93a12.26,12.26,0,0,0-12.22,12.22v12.21H12.21A12.26,12.26,0,0,0,0,158.79v24.42a12.26,12.26,0,0,0,12.21,12.22h256.5v12.21a12.26,12.26,0,0,0,12.22,12.22h24.43a12.26,12.26,0,0,0,12.21-12.22V195.43h61.07a12.26,12.26,0,0,0,12.22-12.22V158.79A12.26,12.26,0,0,0,378.64,146.57Zm0-122.14H219.86V12.21A12.26,12.26,0,0,0,207.64,0H183.21A12.25,12.25,0,0,0,171,12.21V24.43H12.21A12.25,12.25,0,0,0,0,36.64V61.07A12.26,12.26,0,0,0,12.21,73.29H171V85.5a12.25,12.25,0,0,0,12.21,12.21h24.43A12.25,12.25,0,0,0,219.86,85.5V73.29H378.64a12.26,12.26,0,0,0,12.22-12.22V36.64A12.25,12.25,0,0,0,378.64,24.43Z"/></g></g></svg>