<svg xmlns="http://www.w3.org/2000/svg" viewBox="0 0 205.04 182.74"><defs><style>.cls-1{fill:none;stroke:#000;stroke-miterlimit:10;stroke-width:3px;}</style></defs><g id="Layer_2" data-name="Layer 2"><g id="Layer_1-2" data-name="Layer 1"><path class="cls-1" d="M203.54,81.55a6.75,6.75,0,0,0-3.28-5.77L151,46.22a48.64,48.64,0,0,0-97,0L4.78,75.78A6.77,6.77,0,0,0,1.5,81.55v7.27A20.49,20.49,0,0,0,22,109.28H183.09a20.48,20.48,0,0,0,20.45-20.46V81.55ZM102.52,15A35.2,35.2,0,0,1,137,43.4H68A35.2,35.2,0,0,1,102.52,15ZM132,74.82h-24V56.91h13.29ZM47.9,95.76H22a7,7,0,0,1-7-6.94v-.49H52.36ZM32.65,74.82,62.5,56.91h8.72L60.47,74.82ZM97.12,95.76H60.51L65,88.33H97.12Zm0-20.94h-24L83.83,56.91H97.12Zm10.81,20.94V88.33h32.14l4.46,7.43Zm25.9-38.85h8.72l29.84,17.91H144.57Zm49.26,38.85h-26l-4.46-7.43H190v.49h0A7,7,0,0,1,183.09,95.76Z"/><path class="cls-1" d="M154.63,137.05a5.41,5.41,0,1,0-5,7.54,5.3,5.3,0,0,0,2.12-.44A5.42,5.42,0,0,0,154.63,137.05Z"/><path class="cls-1" d="M162.48,155.38a5.41,5.41,0,1,0-5,7.54,5.56,5.56,0,0,0,2.13-.44A5.42,5.42,0,0,0,162.48,155.38Z"/><path class="cls-1" d="M146.77,118.72a5.41,5.41,0,1,0-5,7.54,5.56,5.56,0,0,0,2.13-.44A5.42,5.42,0,0,0,146.77,118.72Z"/><path class="cls-1" d="M165.36,170.44a5.39,5.39,0,1,0,3.83,1.58A5.43,5.43,0,0,0,165.36,170.44Z"/><path class="cls-1" d="M49.66,152.54a5.41,5.41,0,1,0-4.25,9.94,5.48,5.48,0,0,0,2.12.44,5.41,5.41,0,0,0,2.13-10.38Z"/><path class="cls-1" d="M57.52,134.21a5.41,5.41,0,1,0-4.26,9.94,5.35,5.35,0,0,0,2.13.44,5.41,5.41,0,0,0,2.13-10.38Z"/><path class="cls-1" d="M65.37,115.88a5.41,5.41,0,0,0-4.25,9.94,5.3,5.3,0,0,0,2.12.44,5.41,5.41,0,0,0,2.13-10.38Z"/><path class="cls-1" d="M39.68,170.44A5.39,5.39,0,1,0,43.5,172,5.43,5.43,0,0,0,39.68,170.44Z"/><circle class="cls-1" cx="102.52" cy="171.54" r="5.41"/><circle class="cls-1" cx="102.52" cy="116.8" r="5.41"/><circle class="cls-1" cx="102.52" cy="153.29" r="5.41"/><circle class="cls-1" cx="102.52" cy="135.05" r="5.41"/></g></g></svg>