<svg xmlns="http://www.w3.org/2000/svg" viewBox="0 0 181.53 132.77"><defs><style>.cls-1{fill:none;stroke:#000;stroke-linecap:round;stroke-linejoin:round;stroke-width:4px;}</style></defs><g id="Layer_2" data-name="Layer 2"><g id="Layer_1-2" data-name="Layer 1"><path class="cls-1" d="M177.08,12.12a11,11,0,0,0-8.58-3.87H20.85A12.47,12.47,0,0,0,14.48,10L7.36,2.92A3.14,3.14,0,0,0,2.92,7.37l7.3,7.12a12.34,12.34,0,0,0-1.57,6.39V36.55a12.24,12.24,0,0,0,12.2,12.54h3.57c2.25,7.85,4.07,20.38-3.16,33-9.93,17.38-13.33,29.51-10.71,38.15a16.5,16.5,0,0,0,8.89,10.19,3.13,3.13,0,0,0,1.41.32h37.7a3.14,3.14,0,0,0,3.1-2.61c1.71-10.26,4.13-23.33,6.67-35.1,3.08-.24,50.64-4.7,55.89-44h38a14.78,14.78,0,0,0,14.2-11.82l2.91-16A11.07,11.07,0,0,0,177.08,12.12ZM92.35,80.34a79.57,79.57,0,0,1-22.59,6.28c2.56-11.13,5.13-20.21,7.11-23.19a97.15,97.15,0,0,1,6.72-8.6,15.51,15.51,0,0,0,3.2,8c2.79,3.4,7,5.13,12.6,5.13a3.14,3.14,0,1,0,0-6.28c-3.58,0-6.18-1-7.72-2.81-2.8-3.38-1.8-9-1.77-9.17a4.19,4.19,0,0,0,.06-.63h27.9C115.72,63.23,107.16,73.57,92.35,80.34Z"/><line class="cls-1" x1="65.19" y1="20.82" x2="162.58" y2="20.82"/></g></g></svg>