<svg xmlns="http://www.w3.org/2000/svg" viewBox="0 0 304.2 283.96"><defs><style>.cls-1{fill:none;stroke:#000;stroke-miterlimit:10;stroke-width:5px;}</style></defs><g id="Layer_2" data-name="Layer 2"><g id="Layer_1-2" data-name="Layer 1"><path class="cls-1" d="M104.33,83.85a12.5,12.5,0,0,1,14.47-20,38.22,38.22,0,0,1,53.1-13.7c1.78,1.09,3.65,2.18,5.59,3.27V20.22A17.73,17.73,0,0,0,156.16,2.88c-18,3.77-41.53,5.84-66.17,5.84S41.86,6.65,23.83,2.88A17.64,17.64,0,0,0,9,6.47,17.64,17.64,0,0,0,2.5,20.22v92.63a87.63,87.63,0,0,0,76.32,86.79A107.87,107.87,0,0,1,85,157.24l3.4-9.58a26.66,26.66,0,0,0-17.24,7.75,12.5,12.5,0,0,1-17.68-17.67,51.65,51.65,0,0,1,43.66-14.63l12.44-35A36.53,36.53,0,0,1,104.33,83.85Zm-29.88,0a35.86,35.86,0,0,1-50.73,0A12.5,12.5,0,1,1,41.39,66.17a10.89,10.89,0,0,0,15.38,0A12.5,12.5,0,1,1,74.45,83.85Z"/><path class="cls-1" d="M299,120.11a18.21,18.21,0,0,0-13.08-8.6c-17.52-2.39-40.14-8.09-64.19-16.65s-45.19-18.42-60.29-27.64A18.21,18.21,0,0,0,152,64.56a18,18,0,0,0-6.09,1,18.22,18.22,0,0,0-11.07,11.06l-31,87.27a88,88,0,1,0,165.8,59l31.05-87.27A18.18,18.18,0,0,0,299,120.11ZM134.13,143.46a12.5,12.5,0,0,1,5.92-16.65,35.87,35.87,0,0,1,47.8,17,12.5,12.5,0,1,1-22.58,10.73,10.86,10.86,0,0,0-14.49-5.15A12.5,12.5,0,0,1,134.13,143.46ZM210.71,235a51.71,51.71,0,0,1-68.88-24.5,12.5,12.5,0,1,1,22.58-10.73A26.73,26.73,0,0,0,200,212.39,12.5,12.5,0,1,1,210.71,235Zm47.17-47.48a12.5,12.5,0,0,1-16.66-5.93,10.88,10.88,0,0,0-14.48-5.15A12.5,12.5,0,1,1,216,153.83a35.92,35.92,0,0,1,47.8,17A12.5,12.5,0,0,1,257.88,187.49Z"/></g></g></svg>