<svg xmlns="http://www.w3.org/2000/svg" viewBox="0 0 140.48 212.13"><defs><style>.cls-1{fill:none;stroke:#000;stroke-miterlimit:10;stroke-width:4px;}</style></defs><g id="Layer_2" data-name="Layer 2"><g id="Layer_1-2" data-name="Layer 1"><path class="cls-1" d="M70.24,2A68.31,68.31,0,0,0,2,70.24v119A13.31,13.31,0,0,0,23.59,199.6l0,0a5.82,5.82,0,0,1,7.26,0l9.58,7.63a13.25,13.25,0,0,0,16.57,0l9.58-7.63a5.83,5.83,0,0,1,7.28,0l9.58,7.63a13.25,13.25,0,0,0,16.57,0l9.57-7.63a5.85,5.85,0,0,1,7.29,0,13.3,13.3,0,0,0,21.59-10.4V70.24A68.33,68.33,0,0,0,70.24,2Z"/><path class="cls-1" d="M46.36,46.87A16.39,16.39,0,1,0,62.75,63.25,16.4,16.4,0,0,0,46.36,46.87Z"/><path class="cls-1" d="M94.11,46.87a16.39,16.39,0,1,0,16.38,16.38A16.4,16.4,0,0,0,94.11,46.87Z"/><path class="cls-1" d="M46.08,110.14a24.44,24.44,0,0,1,48.31,0Z"/></g></g></svg>