<svg xmlns="http://www.w3.org/2000/svg" viewBox="0 0 422.95 422.95"><g id="Layer_2" data-name="Layer 2"><g id="Layer_1-2" data-name="Layer 1"><path d="M423,211.08c.22,116.51-94.8,211.79-211.32,211.87A210.54,210.54,0,0,1,78.76,376.13a20.44,20.44,0,0,1-1.57-30.36l9.61-9.61A20.49,20.49,0,0,1,114,334.47,156.92,156.92,0,1,0,104,97.15l43.27,43.28a13.64,13.64,0,0,1-9.64,23.29h-124A13.64,13.64,0,0,1,0,150.08v-124a13.64,13.64,0,0,1,23.29-9.65l42.1,42.1A210.78,210.78,0,0,1,211.48,0C328.14,0,422.74,94.47,423,211.08ZM268.69,278.26l8.37-10.77a20.47,20.47,0,0,0-3.59-28.72l-34.71-27v-89a20.46,20.46,0,0,0-20.46-20.46H204.66a20.46,20.46,0,0,0-20.47,20.46V238.47L240,281.85A20.47,20.47,0,0,0,268.69,278.26Z"/></g></g></svg>